<?xml version="1.0"?><svg width="533.3333333333333" height="533.3333333333333" xmlns="http://www.w3.org/2000/svg">
 <g>
  <title>Layer 1</title>
  <path d="m93.449509,75.249931c-10.032898,117.368721 30.390335,167.462486 -1.461601,355.843666c0,0 287.195595,2.670746 286.46476,2.670746c37.45224,-196.841415 -21.721924,-260.880219 2.289886,-312.448311c-46.365509,-0.578247 -57.828857,-46.733688 -57.828857,-46.733688l-229.46418,0.66761l-0.000008,-0.000023z" id="path588" stroke-linejoin="round" stroke-width="10" stroke="#29b1d7" fill-rule="evenodd" fill="#ffffff"/>
  <path d="m321.961914,73.430199l-0.848999,59.354591l68.681,0c3.391998,-5.08757 -64.44101,-57.658691 -67.832001,-59.354591z" id="path589" stroke-linejoin="round" stroke-width="10" stroke="#29b1d7" fill-rule="evenodd" fill="#ffffff"/>
  <path d="m239.043167,366.76825l-17.68811,73.080719l73.915665,-50.838562c0,0 -6.438629,-43.213165 -56.227554,-22.242157z" id="path554" stroke-linejoin="round" stroke-width="13.698779" stroke="#29b1d7" fill-rule="evenodd" fill="#ffffff"/>
  <path d="m239.698517,366.76825l166.399384,-228.776047c0,0 15.722626,-19.064644 33.410889,-8.261353c5.241638,1.270996 3.931213,0.000076 14.412994,7.625854c2.620056,1.906509 3.930481,17.158218 3.930481,17.158218c0,0 -163.779297,234.495483 -163.779297,235.131073c0,0.634827 -2.620819,-13.981171 -17.033051,-21.60733c-13.10257,-7.625397 -36.686188,-0.634827 -37.3414,-1.270416z" id="path553" stroke-linejoin="round" stroke-width="13.698779" stroke="#29b1d7" fill-rule="evenodd" fill="#ffffff"/>
  <path fill="black" d="m220.699921,440.484558l5.896088,-22.877716c0,-0.635559 7.861404,-0.635559 10.481857,2.542297c2.620651,0.635559 3.275864,5.719421 3.275864,5.719421l-19.653809,14.615997z" id="path555" stroke-linejoin="round" stroke-width="17.123474" stroke="#29b1d7" fill-rule="evenodd"/>
  <path d="m398.89212,146.889069l32.100494,-37.493797c0,0 13.75705,-13.980751 27.514862,-6.990349c13.757019,6.990349 7.205719,3.177361 13.757751,7.625778c5.895355,8.896942 -1.965576,25.419586 -2.620789,25.419586c-0.655212,0 -26.85965,41.942642 -26.85965,41.942642c0,0 6.550568,-7.626144 -4.586395,-13.345642c-12.446625,-15.887222 -39.961487,-17.158218 -39.306274,-17.158218z" id="path556" stroke-linejoin="round" stroke-width="13.698779" stroke="#29b1d7" fill-rule="evenodd" fill="#ffffff"/>
  <path d="m391.685638,155.785858c-0.655212,0 26.859619,-34.316299 26.859619,-34.316299c0,0 11.136963,-1.271072 20.963531,1.270935c11.137695,4.448425 6.5513,1.270996 14.412994,6.990433c7.20575,5.71936 8.516144,19.064636 8.516144,19.064636l-20.963531,31.774506c0,0 0.655212,-6.354996 -5.896088,-13.344849c-10.48175,-8.261932 -20.964264,-9.532867 -27.514832,-12.07486c-9.172089,-1.270935 -17.033051,1.270996 -16.377838,0.635498z" id="path557" stroke-linejoin="round" stroke-width="13.698779" stroke="#29b1d7" fill-rule="evenodd" fill="#ffffff"/>
  <path style="vector-effect: non-scaling-stroke; " d="m221.99321,438.628906c0,-0.898743 5.095612,-19.771759 6.485321,-19.771759c1.389725,0 6.022095,0.898712 6.022095,2.246765c-7.875046,4.493591 -11.117706,16.17691 -12.507416,17.524994z" id="path566" stroke-linejoin="round" stroke-width="17.123474" fill-rule="evenodd" fill="#ffffff"/>
  <path d="m255.607513,355.762634c10.684113,-16.460175 137.151947,-188.489029 140.923065,-190.927567c52.790527,-21.337173 -103.84256,139.718002 -140.923065,190.927567z" id="path564" stroke-linejoin="round" stroke-width="17.123474" fill-rule="evenodd" fill-opacity="0.503704" fill="#ffffff"/>
  <path d="m234.507065,414.152222c0,-1.829071 7.541885,-34.138977 11.311981,-44.502991c1.257034,0 21.126724,-3.026001 28.039719,7.948395c-24.509338,3.65741 -38.094727,31.677826 -39.3517,36.554596z" id="path565" stroke-linejoin="round" stroke-width="17.123474" fill-rule="evenodd" fill="#ffffff"/>
  <path d="m457.250427,105.677681c0,0 14.454498,3.048225 14.454498,7.31562c3.770355,12.192642 -3.142639,18.89856 -7.541534,26.214188c1.25705,-11.583015 3.771149,-17.069641 -6.912964,-33.529808z" id="path567" stroke-linejoin="round" stroke-width="17.123474" fill-rule="evenodd" fill="#ffffff"/>
 </g>
</svg>