<?xml version="1.0" encoding="UTF-8" standalone="no"?>
<svg
   xmlns:osb="http://www.openswatchbook.org/uri/2009/osb"
   xmlns:dc="http://purl.org/dc/elements/1.1/"
   xmlns:cc="http://creativecommons.org/ns#"
   xmlns:rdf="http://www.w3.org/1999/02/22-rdf-syntax-ns#"
   xmlns:svg="http://www.w3.org/2000/svg"
   xmlns="http://www.w3.org/2000/svg"
   xmlns:xlink="http://www.w3.org/1999/xlink"
   xmlns:sodipodi="http://sodipodi.sourceforge.net/DTD/sodipodi-0.dtd"
   xmlns:inkscape="http://www.inkscape.org/namespaces/inkscape"
   width="533.3333333333333"
   height="533.3333333333333"
   onmouseover="evt.target.setAttribute('opacity', '0.5');"
   id="svg2"
   version="1.1"
   inkscape:version="0.91 r13725"
   sodipodi:docname="logo.svg">
  <metadata
     id="metadata23">
    <rdf:RDF>
      <cc:Work
         rdf:about="">
        <dc:format>image/svg+xml</dc:format>
        <dc:type
           rdf:resource="http://purl.org/dc/dcmitype/StillImage" />
      </cc:Work>
    </rdf:RDF>
  </metadata>
  <defs
     id="defs21">
    <linearGradient
       id="linearGradient5649"
       osb:paint="solid">
      <stop
         style="stop-color:#14776c;stop-opacity:1;"
         offset="0"
         id="stop5651" />
    </linearGradient>
    <linearGradient
       id="linearGradient5629"
       osb:paint="solid">
      <stop
         style="stop-color:#f0e65a;stop-opacity:1;"
         offset="0"
         id="stop5631" />
    </linearGradient>
    <linearGradient
       id="linearGradient5623"
       osb:paint="solid">
      <stop
         style="stop-color:#f0e68c;stop-opacity:1;"
         offset="0"
         id="stop5625" />
    </linearGradient>
    <pattern
       inkscape:stockid="Stripes 1:1"
       id="Strips1_1"
       patternTransform="translate(0,0) scale(10,10)"
       height="1"
       width="2"
       patternUnits="userSpaceOnUse"
       inkscape:collect="always">
      <rect
         id="rect4890"
         height="2"
         width="1"
         y="-0.5"
         x="0"
         style="fill:black;stroke:none" />
    </pattern>
    <linearGradient
       inkscape:collect="always"
       xlink:href="#linearGradient5649"
       id="linearGradient5653"
       x1="392.04466"
       y1="138.93766"
       x2="481.40083"
       y2="138.93766"
       gradientUnits="userSpaceOnUse" />
  </defs>
  <sodipodi:namedview
     pagecolor="#ffffff"
     bordercolor="#666666"
     borderopacity="1"
     objecttolerance="10"
     gridtolerance="10"
     guidetolerance="10"
     inkscape:pageopacity="0"
     inkscape:pageshadow="2"
     inkscape:window-width="1360"
     inkscape:window-height="680"
     id="namedview19"
     showgrid="false"
     inkscape:zoom="1.2558638"
     inkscape:cx="161.32144"
     inkscape:cy="259.48046"
     inkscape:window-x="73"
     inkscape:window-y="0"
     inkscape:window-maximized="0"
     inkscape:current-layer="g4" />
  <g
     id="g4"
     transform="matrix(1,0,-0.26124864,1,67.594888,0)">
    <title
       id="title6">Layer 1</title>
    <path
       d="M 93.449509,75.249931 C 83.416611,192.61865 123.83984,242.71242 91.987908,431.0936 c 0,0 287.195592,2.67074 286.464762,2.67074 37.45224,-196.84141 -21.72193,-260.88022 2.28988,-312.44831 -46.3655,-0.57824 -57.82885,-46.733686 -57.82885,-46.733686 l -229.464183,0.66761 -8e-6,-2.3e-5 z"
       id="path588"
       inkscape:connector-curvature="0"
       style="fill:#c8ab37;fill-rule:evenodd;stroke:url(#Strips1_1);stroke-width:10;stroke-linejoin:round;fill-opacity:1;stroke-opacity:0.62352943" />
    <path
       d="m 239.04317,366.76825 c -5.89604,24.36024 -14.91304,36.77412 -17.68811,73.08072 l 42.22404,-29.04133 31.69162,-21.79723 c 0,0 -6.43863,-43.21317 -56.22755,-22.24216 z"
       id="path554"
       inkscape:connector-curvature="0"
       style="fill:#008080;fill-rule:evenodd;stroke:#050d1a;stroke-width:13.69877911;stroke-linejoin:round;stroke-opacity:1"
       sodipodi:nodetypes="ccccc" />
    <path
       d="M 239.69852,366.76825 346.91448,217.27157 406.0979,137.9922 c 0,0 15.72263,-19.06464 33.41089,-8.26135 5.24164,1.271 -7.5958,33.10632 -7.5958,33.10632 -305.90316,472.49894 25.93927,-8.32225 25.93927,-8.32225 0,0 -33.08707,47.37332 -69.51799,99.592 l -0.9081,1.30165 c -44.38492,63.62071 -93.3532,133.88989 -93.3532,134.23743 0,0.63482 -2.62082,-13.98118 -17.03305,-21.60733 -13.10257,-7.6254 -36.68619,-0.63483 -37.3414,-1.27042 z"
       id="path553"
       inkscape:connector-curvature="0"
       style="fill:#ff8080;fill-opacity:1;fill-rule:evenodd;stroke:#14776c;stroke-width:13.69877911;stroke-linejoin:round;stroke-opacity:1"
       sodipodi:nodetypes="ccccccssscc" />
    <path
       d="m 220.69992,440.48456 5.89609,-22.87772 c 0,-0.63556 7.8614,-0.63556 10.48186,2.5423 2.62065,0.63556 3.27586,5.71942 3.27586,5.71942 l -19.65381,14.616 z"
       id="path555"
       inkscape:connector-curvature="0"
       style="fill:#008080;fill-rule:evenodd;stroke:#080b1d;stroke-width:17.12347412;stroke-linejoin:round;stroke-opacity:1" />
    <path
       d="m 398.89212,146.88907 17.93781,-20.95161 3.30513,-3.86043 2.53734,-2.96365 8.32021,-9.71811 c 0,0 13.75705,-13.980749 27.51487,-6.99035 13.75701,6.99035 7.20571,3.17736 13.75775,7.62578 5.89535,8.89694 -1.96558,25.41959 -2.62079,25.41959 -0.25721,0 -4.45167,6.46353 -9.4525,14.31594 -1.85474,2.91234 -3.8204,6.01572 -5.73725,9.05126 -6.08049,9.62908 -11.6699,18.57544 -11.6699,18.57544 0,0 0.84035,-2.0523 -10.29662,-7.77179 -12.44662,-15.88723 -23.55543,-27.50966 -33.59605,-22.73207 z"
       id="path556"
       inkscape:connector-curvature="0"
       style="fill:#ff8080;fill-opacity:1;fill-rule:evenodd;stroke:url(#linearGradient5653);stroke-width:13.69877911;stroke-linejoin:round;stroke-opacity:1"
       sodipodi:nodetypes="cccccccsssccc" />
    <path
       style="fill:#2b2200;fill-rule:evenodd;stroke-width:17.12347412;stroke-linejoin:round;fill-opacity:0.4909091"
       d="m 221.99321,438.62891 c 0,-0.89875 5.09561,-19.77176 6.48532,-19.77176 1.38973,0 6.0221,0.89871 6.0221,2.24676 -7.87505,4.49359 -11.11771,16.17691 -12.50742,17.525 z"
       id="path566"
       inkscape:connector-curvature="0" />
    <path
       d="M 255.60751,355.76263 C 266.29163,339.30246 394.81598,149.1945 398.5871,146.75597 c 26.3672,-10.65725 14.35413,51.30534 -22.77694,95.23711 -37.2101,44.02527 -101.64268,88.13755 -120.20265,113.76955 z"
       id="path564"
       inkscape:connector-curvature="0"
       style="fill:#008080;fill-opacity:0.503704;fill-rule:evenodd;stroke-width:17.12347412;stroke-linejoin:round"
       sodipodi:nodetypes="ccsc" />
    <path
       d="m 234.50706,414.15222 c 0,-1.82907 0,0 6.7066,-46.89178 2.21216,-1.77286 44.44935,-5.81947 42.13556,22.28116 -39.35169,36.55459 -36.87782,29.32581 -48.84216,24.61062 z"
       id="path565"
       inkscape:connector-curvature="0"
       style="fill:#d3bc5f;fill-opacity:0.39215687;fill-rule:evenodd;stroke-width:17.12347412;stroke-linejoin:round"
       sodipodi:nodetypes="cccc" />
  </g>
</svg>
