<?xml version="1.0" encoding="utf-8"?>
<!-- Generator: Adobe Illustrator 18.1.1, SVG Export Plug-In . SVG Version: 6.00 Build 0)  -->
<svg version="1.1" id="Layer_1" xmlns="http://www.w3.org/2000/svg" xmlns:xlink="http://www.w3.org/1999/xlink" 
     x="0px" y="0px"
	 viewBox="0 -10 25 70" 
            enable-background="new 0 0 25 50" xml:space="preserve">
<g>
	<circle fill="#FEDABF" cx="13.029" cy="8.73" r="8.73"/>
	<path fill="#915B29" d="M11.177,0.265c-4.63,1.058-7.672,5.688-6.614,10.317c0.132,0.529,0.265,1.058,0.529,1.587l0,0
		C9.722,8.598,6.68,2.778,6.68,2.778c3.307,5.159,12.831,0.265,14.815,4.101C20.437,2.116,15.807-0.794,11.177,0.265z"/>
	<path fill="#F6C752" d="M0.86,50c0,0-0.529-14.286-0.529-21.825s8.069-4.63,8.069-9.392h8.201c0,4.63,8.069,1.72,8.069,9.392
		S24.14,50,24.14,50H0.86z"/>
</g>
</svg>
