<?xml version="1.0" encoding="UTF-8" standalone="no"?>
<!-- Generator: Adobe Illustrator 18.1.1, SVG Export Plug-In . SVG Version: 6.00 Build 0)  -->

<svg
   xmlns:dc="http://purl.org/dc/elements/1.1/"
   xmlns:cc="http://creativecommons.org/ns#"
   xmlns:rdf="http://www.w3.org/1999/02/22-rdf-syntax-ns#"
   xmlns:svg="http://www.w3.org/2000/svg"
   xmlns="http://www.w3.org/2000/svg"
   xmlns:sodipodi="http://sodipodi.sourceforge.net/DTD/sodipodi-0.dtd"
   xmlns:inkscape="http://www.inkscape.org/namespaces/inkscape"
   version="1.1"
   id="Layer_1"
   x="0px"
   y="0px"
   viewBox="3 3 9 9"
   enable-background="new 3 3 9 9"
   xml:space="preserve"
   inkscape:version="0.91 r13725"
   sodipodi:docname="hvem-er-du.svg"><metadata
     id="metadata197"><rdf:RDF><cc:Work
         rdf:about=""><dc:format>image/svg+xml</dc:format><dc:type
           rdf:resource="http://purl.org/dc/dcmitype/StillImage" /></cc:Work></rdf:RDF></metadata><defs
     id="defs195" /><sodipodi:namedview
     pagecolor="#ffffff"
     bordercolor="#666666"
     borderopacity="1"
     objecttolerance="10"
     gridtolerance="10"
     guidetolerance="10"
     inkscape:pageopacity="0"
     inkscape:pageshadow="2"
     inkscape:window-width="640"
     inkscape:window-height="480"
     id="namedview193"
     showgrid="false"
     inkscape:zoom="23.690228"
     inkscape:cx="7.6567465"
     inkscape:cy="8.2809378"
     inkscape:window-x="0"
     inkscape:window-y="0"
     inkscape:window-maximized="0"
     inkscape:current-layer="Layer_1"
     showguides="false" /><g
     id="g17"
     transform="translate(-5.1525424,1.4915254)" /><g
     id="g21"
     transform="translate(-7.0508475,1.0847458)" /><g
     id="g25"
     transform="translate(-5.1525424,1.4915254)" /><g
     id="g33"
     transform="translate(-5.1525424,1.4915254)" /><g
     id="g37"
     transform="translate(-5.1525424,1.4915254)" /><g
     id="g41"
     transform="translate(-5.1525424,1.4915254)" /><g
     id="g57"
     transform="translate(-5.1525424,1.4915254)"><path
       d="m 3.825,8.917 -0.08,0.104 c -0.04,0.053 -0.03,0.128 0.023,0.168 l 0,0 C 3.82,9.23 3.896,9.22 3.936,9.167 L 4.015,9.063 C 4.055,9.01 4.045,8.935 3.992,8.895 l 0,0 C 3.94,8.854 3.865,8.864 3.825,8.917 Z"
       id="path59"
       inkscape:connector-curvature="0"
       style="fill:#ffffff" /></g><g
     id="g61"
     transform="translate(-5.1525424,1.4915254)"><circle
       cx="14.933"
       cy="5.0819998"
       r="0.62800002"
       id="circle63"
       style="fill:#fdd9be" /></g><g
     id="g65"
     transform="translate(-5.1525424,1.4915254)"><circle
       cx="12.521"
       cy="3.5829999"
       r="0.634"
       id="circle67"
       style="fill:#fdd9be" /></g><g
     id="g69"
     transform="translate(-5.1525424,1.4915254)"><path
       d="m 12.436,2.955 c -0.356,0.048 -0.606,0.376 -0.558,0.732 0.006,0.041 0.015,0.081 0.028,0.119 l 0,0 c 0.369,-0.241 0.182,-0.69 0.182,-0.69 0.219,0.407 0.959,0.1 1.079,0.397 C 13.12,3.156 12.792,2.907 12.436,2.955 Z"
       id="path71"
       inkscape:connector-curvature="0"
       style="fill:#915c29" /></g><g
     id="g73"
     transform="translate(-5.1525424,1.4915254)"><circle
       cx="12.05"
       cy="2.813"
       r="0.242"
       id="circle75"
       style="fill:#915c29" /></g><g
     id="g77"
     transform="translate(-5.1525424,1.4915254)"><path
       d="m 15.704,5.674 c -0.014,0 -0.028,-0.005 -0.038,-0.016 L 14.573,4.582 C 14.552,4.561 14.551,4.526 14.572,4.505 14.593,4.483 14.628,4.483 14.649,4.504 l 1.093,1.076 c 0.021,0.021 0.022,0.056 10e-4,0.077 -0.011,0.012 -0.025,0.017 -0.039,0.017 z"
       id="path79"
       inkscape:connector-curvature="0"
       style="fill:#75c595" /></g><g
     id="g81"
     transform="translate(-5.1525424,1.4915254)"><path
       d="m 14.959,4.415 c -0.084,0 -0.164,0.018 -0.237,0.048 -0.015,0.04 -0.035,0.077 -0.06,0.112 l 0.823,0.811 c 0.064,-0.099 0.102,-0.216 0.102,-0.342 0,-0.348 -0.282,-0.629 -0.628,-0.629 z"
       id="path83"
       inkscape:connector-curvature="0"
       style="fill:#75c595" /></g><g
     id="g85"
     transform="translate(-5.1525424,1.4915254)"><path
       d="m 11.624,6.701 c 0,0 -0.035,-1.072 -0.035,-1.64 0,-0.568 0.609,-0.351 0.609,-0.702 l 0.612,0 c 0,0.35 0.609,0.133 0.609,0.702 0,0.569 -0.035,1.64 -0.035,1.64 l -1.76,0 z"
       id="path87"
       inkscape:connector-curvature="0"
       style="fill:#b2b2b2" /></g><g
     id="g89"
     transform="translate(-5.1525424,1.4915254)"><path
       d="m 15.889,8.192 c 0,0 0.035,-1.072 0.035,-1.64 0,-0.568 -0.609,-0.352 -0.609,-0.702 l -0.612,0 c 0,0.35 -0.609,0.133 -0.609,0.702 0,0.569 0.035,1.64 0.035,1.64 l 1.76,0 z"
       id="path91"
       inkscape:connector-curvature="0"
       style="fill:#a4c1e5" /></g><g
     id="g93"
     transform="translate(-5.1525424,1.4915254)"><polygon
       points="14.433,11.195 15.635,11.195 15.813,8.25 14.255,8.25 "
       id="polygon95"
       style="fill:#fbe285" /></g><g
     id="g97"
     transform="translate(-0.94915257,-0.88135598)"><g
       id="g99"><path
         d="m 8.556,7.811 c 0,-0.148 -0.112,-0.25 -0.299,-0.25 -0.164,0 -0.299,0.073 -0.424,0.205 L 7.639,7.559 C 7.79,7.387 7.985,7.27 8.266,7.27 8.63,7.27 8.874,7.473 8.874,7.8 8.874,8.13 8.64,8.279 8.351,8.328 L 8.325,8.539 8.114,8.539 8.063,8.118 8.076,8.105 c 0.33,-0.013 0.48,-0.119 0.48,-0.294 z m -0.517,1.303 0,-0.356 0.349,0 0,0.356 -0.349,0 z"
         id="path101"
         inkscape:connector-curvature="0"
         style="fill:#ffffff" /></g></g><g
     id="g103"
     transform="translate(-1.0847458,-0.20338988)"><rect
       x="10.748"
       y="9.7580004"
       transform="matrix(0.7071,0.7071,-0.7071,0.7071,10.5462,-4.7035)"
       width="0.40599999"
       height="1.242"
       id="rect105"
       style="fill:#1b539f" /></g><g
     id="g139"
     transform="translate(-5.1525424,1.4915254)"><path
       d="M 2.392,7.557 C 2.359,7.468 2.248,7.537 2.388,7.663"
       id="path141"
       inkscape:connector-curvature="0"
       style="fill:#fdd9be" /></g><g
     id="g147"
     transform="translate(-5.1525424,1.4915254)"><path
       d="M 15.023,5.029 14.307,4.894 c 0,0 0.159,-0.253 0.251,-0.329 l 0.465,0.464 z"
       id="path149"
       inkscape:connector-curvature="0"
       style="fill:#f5c652" /></g><g
     id="g155"
     transform="translate(-5.1525424,1.4915254)"><path
       d="m 11.754,12.804 c -0.033,0 -0.06,-0.027 -0.06,-0.059 0,-0.033 0.026,-0.059 0.059,-0.059 l 10e-4,0 c 0.033,0 0.059,0.027 0.059,0.059 0,0.033 -0.027,0.059 -0.059,0.059 z m -0.238,0 -0.119,0 c -0.033,0 -0.059,-0.027 -0.059,-0.059 0,-0.033 0.027,-0.059 0.059,-0.059 l 0.119,0 c 0.033,0 0.059,0.027 0.059,0.059 0,0.033 -0.026,0.059 -0.059,0.059 z m -0.356,0 -0.119,0 c -0.033,0 -0.059,-0.027 -0.059,-0.059 0,-0.033 0.027,-0.059 0.059,-0.059 l 0.119,0 c 0.033,0 0.059,0.027 0.059,0.059 0,0.033 -0.026,0.059 -0.059,0.059 z m -0.356,0 -0.119,0 c -0.033,0 -0.059,-0.027 -0.059,-0.059 0,-0.033 0.027,-0.059 0.059,-0.059 l 0.119,0 c 0.033,0 0.059,0.027 0.059,0.059 0.001,0.033 -0.026,0.059 -0.059,0.059 z m -0.356,0 -0.118,0 c -0.033,0 -0.059,-0.027 -0.059,-0.059 0,-0.033 0.027,-0.059 0.059,-0.059 l 0.119,0 c 0.033,0 0.059,0.027 0.059,0.059 0,0.033 -0.027,0.059 -0.06,0.059 z m -0.355,0 -0.119,0 c -0.033,0 -0.059,-0.027 -0.059,-0.059 0,-0.033 0.027,-0.059 0.059,-0.059 l 0.119,0 c 0.033,0 0.059,0.027 0.059,0.059 0,0.033 -0.027,0.059 -0.059,0.059 z m -0.356,0 -0.119,0 c -0.033,0 -0.059,-0.027 -0.059,-0.059 0,-0.033 0.027,-0.059 0.059,-0.059 l 0.119,0 c 0.033,0 0.059,0.027 0.059,0.059 0,0.033 -0.026,0.059 -0.059,0.059 z m -0.356,0 -0.118,0 c -0.033,0 -0.059,-0.027 -0.059,-0.059 0,-0.033 0.027,-0.059 0.059,-0.059 l 0.119,0 c 0.033,0 0.059,0.027 0.059,0.059 -0.001,0.033 -0.027,0.059 -0.06,0.059 z m -0.356,0 -0.118,0 c -0.033,0 -0.059,-0.027 -0.059,-0.059 0,-0.033 0.027,-0.059 0.059,-0.059 l 0.119,0 c 0.033,0 0.059,0.027 0.059,0.059 0,0.033 -0.027,0.059 -0.06,0.059 z m -0.355,0 -0.119,0 c -0.033,0 -0.059,-0.027 -0.059,-0.059 0,-0.033 0.027,-0.059 0.059,-0.059 l 0.119,0 c 0.033,0 0.059,0.027 0.059,0.059 0,0.033 -0.027,0.059 -0.059,0.059 z m -0.356,0 -0.119,0 c -0.033,0 -0.059,-0.027 -0.059,-0.059 0,-0.033 0.027,-0.059 0.059,-0.059 l 0.119,0 c 0.033,0 0.059,0.027 0.059,0.059 0,0.033 -0.026,0.059 -0.059,0.059 z m -0.356,0 -0.118,0 c -0.033,0 -0.059,-0.027 -0.059,-0.059 0,-0.033 0.027,-0.059 0.059,-0.059 l 0.119,0 c 0.033,0 0.059,0.027 0.059,0.059 -0.001,0.033 -0.027,0.059 -0.06,0.059 z m -0.356,0 -0.118,0 c -0.033,0 -0.059,-0.027 -0.059,-0.059 0,-0.033 0.027,-0.059 0.059,-0.059 l 0.119,0 c 0.033,0 0.059,0.027 0.059,0.059 0,0.033 -0.027,0.059 -0.06,0.059 z m -0.355,0 -0.119,0 c -0.033,0 -0.059,-0.027 -0.059,-0.059 0,-0.033 0.027,-0.059 0.059,-0.059 l 0.119,0 c 0.033,0 0.059,0.027 0.059,0.059 0,0.033 -0.027,0.059 -0.059,0.059 z m -0.356,0 -0.119,0 c -0.033,0 -0.059,-0.027 -0.059,-0.059 0,-0.033 0.027,-0.059 0.059,-0.059 l 0.119,0 c 0.033,0 0.059,0.027 0.059,0.059 0,0.033 -0.026,0.059 -0.059,0.059 z m -0.356,0 -0.119,0 c -0.033,0 -0.059,-0.027 -0.059,-0.059 0,-0.033 0.027,-0.059 0.059,-0.059 l 0.119,0 c 0.033,0 0.059,0.027 0.059,0.059 0,0.033 -0.026,0.059 -0.059,0.059 z m -0.356,0 -0.118,0 c -0.033,0 -0.059,-0.027 -0.059,-0.059 0,-0.033 0.027,-0.059 0.059,-0.059 l 0.119,0 c 0.033,0 0.059,0.027 0.059,0.059 0,0.033 -0.027,0.059 -0.06,0.059 z m -0.355,0 -0.119,0 c -0.033,0 -0.059,-0.027 -0.059,-0.059 0,-0.033 0.027,-0.059 0.059,-0.059 l 0.119,0 c 0.033,0 0.059,0.027 0.059,0.059 0,0.033 -0.027,0.059 -0.059,0.059 z m -0.356,0 -0.119,0 c -0.033,0 -0.059,-0.027 -0.059,-0.059 0,-0.033 0.027,-0.059 0.059,-0.059 l 0.119,0 c 0.033,0 0.059,0.027 0.059,0.059 0,0.033 -0.026,0.059 -0.059,0.059 z m -0.356,0 -0.119,0 c -0.033,0 -0.059,-0.027 -0.059,-0.059 0,-0.033 0.027,-0.059 0.059,-0.059 l 0.119,0 c 0.033,0 0.059,0.027 0.059,0.059 0,0.033 -0.026,0.059 -0.059,0.059 z m -0.356,0 -0.118,0 c -0.033,0 -0.059,-0.027 -0.059,-0.059 0,-0.033 0.027,-0.059 0.059,-0.059 l 0.119,0 c 0.033,0 0.059,0.027 0.059,0.059 0,0.033 -0.027,0.059 -0.06,0.059 z"
       id="path157"
       inkscape:connector-curvature="0"
       style="fill:#ffffff" /></g><g
     id="g159"
     transform="translate(-5.1525424,1.4915254)"><path
       d="m 11.754,12.33 c -0.033,0 -0.06,-0.027 -0.06,-0.059 0,-0.033 0.026,-0.059 0.059,-0.059 l 10e-4,0 c 0.033,0 0.059,0.027 0.059,0.059 0,0.032 -0.027,0.059 -0.059,0.059 z m -0.238,0 -0.119,0 c -0.033,0 -0.059,-0.027 -0.059,-0.059 0,-0.033 0.027,-0.059 0.059,-0.059 l 0.119,0 c 0.033,0 0.059,0.027 0.059,0.059 0,0.032 -0.026,0.059 -0.059,0.059 z m -0.356,0 -0.119,0 c -0.033,0 -0.059,-0.027 -0.059,-0.059 0,-0.033 0.027,-0.059 0.059,-0.059 l 0.119,0 c 0.033,0 0.059,0.027 0.059,0.059 0,0.032 -0.026,0.059 -0.059,0.059 z m -0.356,0 -0.119,0 c -0.033,0 -0.059,-0.027 -0.059,-0.059 0,-0.033 0.027,-0.059 0.059,-0.059 l 0.119,0 c 0.033,0 0.059,0.027 0.059,0.059 0.001,0.032 -0.026,0.059 -0.059,0.059 z m -0.356,0 -0.118,0 c -0.033,0 -0.059,-0.027 -0.059,-0.059 0,-0.033 0.027,-0.059 0.059,-0.059 l 0.119,0 c 0.033,0 0.059,0.027 0.059,0.059 0,0.032 -0.027,0.059 -0.06,0.059 z m -0.355,0 -0.119,0 c -0.033,0 -0.059,-0.027 -0.059,-0.059 0,-0.033 0.027,-0.059 0.059,-0.059 l 0.119,0 c 0.033,0 0.059,0.027 0.059,0.059 0,0.032 -0.027,0.059 -0.059,0.059 z m -0.356,0 -0.119,0 c -0.033,0 -0.059,-0.027 -0.059,-0.059 0,-0.033 0.027,-0.059 0.059,-0.059 l 0.119,0 c 0.033,0 0.059,0.027 0.059,0.059 0,0.032 -0.026,0.059 -0.059,0.059 z m -0.356,0 -0.118,0 c -0.033,0 -0.059,-0.027 -0.059,-0.059 0,-0.033 0.027,-0.059 0.059,-0.059 l 0.119,0 c 0.033,0 0.059,0.027 0.059,0.059 -0.001,0.032 -0.027,0.059 -0.06,0.059 z m -0.356,0 -0.118,0 c -0.033,0 -0.059,-0.027 -0.059,-0.059 0,-0.033 0.027,-0.059 0.059,-0.059 l 0.119,0 c 0.033,0 0.059,0.027 0.059,0.059 0,0.032 -0.027,0.059 -0.06,0.059 z m -0.355,0 -0.119,0 c -0.033,0 -0.059,-0.027 -0.059,-0.059 0,-0.033 0.027,-0.059 0.059,-0.059 l 0.119,0 c 0.033,0 0.059,0.027 0.059,0.059 0,0.032 -0.027,0.059 -0.059,0.059 z m -0.356,0 -0.119,0 c -0.033,0 -0.059,-0.027 -0.059,-0.059 0,-0.033 0.027,-0.059 0.059,-0.059 l 0.119,0 c 0.033,0 0.059,0.027 0.059,0.059 0,0.032 -0.026,0.059 -0.059,0.059 z m -0.356,0 -0.118,0 c -0.033,0 -0.059,-0.027 -0.059,-0.059 0,-0.033 0.027,-0.059 0.059,-0.059 l 0.119,0 c 0.033,0 0.059,0.027 0.059,0.059 -0.001,0.032 -0.027,0.059 -0.06,0.059 z m -0.356,0 -0.118,0 c -0.033,0 -0.059,-0.027 -0.059,-0.059 0,-0.033 0.027,-0.059 0.059,-0.059 l 0.119,0 c 0.033,0 0.059,0.027 0.059,0.059 0,0.032 -0.027,0.059 -0.06,0.059 z m -0.355,0 -0.119,0 c -0.033,0 -0.059,-0.027 -0.059,-0.059 0,-0.033 0.027,-0.059 0.059,-0.059 l 0.119,0 c 0.033,0 0.059,0.027 0.059,0.059 0,0.032 -0.027,0.059 -0.059,0.059 z m -0.356,0 -0.119,0 c -0.033,0 -0.059,-0.027 -0.059,-0.059 0,-0.033 0.027,-0.059 0.059,-0.059 l 0.119,0 c 0.033,0 0.059,0.027 0.059,0.059 0,0.032 -0.026,0.059 -0.059,0.059 z m -0.356,0 -0.119,0 c -0.033,0 -0.059,-0.027 -0.059,-0.059 0,-0.033 0.027,-0.059 0.059,-0.059 l 0.119,0 c 0.033,0 0.059,0.027 0.059,0.059 0,0.032 -0.026,0.059 -0.059,0.059 z m -0.356,0 -0.118,0 c -0.033,0 -0.059,-0.027 -0.059,-0.059 0,-0.033 0.027,-0.059 0.059,-0.059 l 0.119,0 c 0.033,0 0.059,0.027 0.059,0.059 0,0.032 -0.027,0.059 -0.06,0.059 z m -0.355,0 -0.119,0 c -0.033,0 -0.059,-0.027 -0.059,-0.059 0,-0.033 0.027,-0.059 0.059,-0.059 l 0.119,0 c 0.033,0 0.059,0.027 0.059,0.059 0,0.032 -0.027,0.059 -0.059,0.059 z m -0.356,0 -0.119,0 c -0.033,0 -0.059,-0.027 -0.059,-0.059 0,-0.033 0.027,-0.059 0.059,-0.059 l 0.119,0 c 0.033,0 0.059,0.027 0.059,0.059 0,0.032 -0.026,0.059 -0.059,0.059 z m -0.356,0 -0.119,0 c -0.033,0 -0.059,-0.027 -0.059,-0.059 0,-0.033 0.027,-0.059 0.059,-0.059 l 0.119,0 c 0.033,0 0.059,0.027 0.059,0.059 0,0.032 -0.026,0.059 -0.059,0.059 z m -0.356,0 -0.118,0 c -0.033,0 -0.059,-0.027 -0.059,-0.059 0,-0.033 0.027,-0.059 0.059,-0.059 l 0.119,0 c 0.033,0 0.059,0.027 0.059,0.059 0,0.032 -0.027,0.059 -0.06,0.059 z"
       id="path161"
       inkscape:connector-curvature="0"
       style="fill:#ffffff" /></g><g
     id="g163"
     transform="translate(-5.1525424,1.4915254)" /><g
     id="g167"
     transform="translate(-5.1525424,1.4915254)"><g
       id="g169"><polygon
         points="11.853,6.756 11.716,7.66 13.341,7.66 13.203,6.756 "
         id="polygon171"
         style="fill:#e37669" /></g><g
       id="g173"><path
         d="m 12.143,7.665 0.082,1.88 0.008,0.103 c 0.047,0.273 0.434,0.289 0.503,0.02 L 12.762,9.54 12.946,7.664"
         id="path175"
         inkscape:connector-curvature="0"
         style="fill:#fdd9be" /></g><g
       id="g177"><polygon
         points="12.945,7.665 12.912,7.903 12.143,7.784 12.143,7.665 "
         id="polygon179"
         style="fill:#f8b39c" /></g></g><g
     id="g181"
     transform="matrix(0.99235801,0,0,0.99235874,-0.93303071,-0.18377813)"><path
       d="m 8.042,11.439 c 0,0 0,0 0,0 C 6.294,11.439 4.75,10.199 4.37,8.491 3.919,6.464 5.201,4.449 7.227,3.998 7.497,3.938 7.774,3.907 8.048,3.907 c 1.748,0 3.292,1.24 3.672,2.948 0.218,0.982 0.041,1.99 -0.498,2.838 -0.539,0.848 -1.378,1.436 -2.359,1.655 -0.271,0.061 -0.547,0.091 -0.821,0.091 z M 8.048,4.199 C 7.795,4.199 7.54,4.227 7.29,4.283 5.421,4.699 4.239,6.558 4.655,8.427 c 0.351,1.576 1.775,2.72 3.387,2.72 0,0 0,0 0,0 0.253,0 0.508,-0.028 0.757,-0.084 0.906,-0.201 1.678,-0.743 2.176,-1.526 0.498,-0.783 0.661,-1.713 0.46,-2.618 C 11.085,5.343 9.66,4.199 8.048,4.199 Z"
       id="path183"
       inkscape:connector-curvature="0"
       style="fill:#1b539f" /></g><g
     id="g185"
     transform="translate(-1.1525424,-0.27118648)"><line
       x1="11.094"
       y1="10.522"
       x2="12.544"
       y2="11.972"
       id="line187"
       style="fill:#4873b7" /><path
       d="m 12.544,12.337 c -0.093,0 -0.187,-0.036 -0.258,-0.107 l -1.449,-1.449 c -0.143,-0.143 -0.143,-0.374 0,-0.517 0.143,-0.143 0.374,-0.143 0.517,0 l 1.449,1.449 c 0.143,0.143 0.143,0.374 0,0.517 -0.072,0.071 -0.166,0.107 -0.259,0.107 z"
       id="path189"
       inkscape:connector-curvature="0"
       style="fill:#1b539f" /></g></svg>